<?xml version="1.0" encoding="UTF-8"?>
<svg id="Layer_1" data-name="Layer 1" xmlns="http://www.w3.org/2000/svg" xmlns:xlink="http://www.w3.org/1999/xlink" viewBox="0 0 200 200">
  <defs>
    <style>
      .cls-1 {
        fill: url(#linear-gradient);
      }

      .cls-2 {
        fill: #002d74;
      }

      .cls-3 {
        fill: #fff;
      }

      .cls-4 {
        fill: url(#linear-gradient-2);
      }
    </style>
    <linearGradient id="linear-gradient" x1="138.91" y1="-207.88" x2="138.91" y2="-118" gradientTransform="translate(0 -18) scale(1 -1)" gradientUnits="userSpaceOnUse">
      <stop offset="0" stop-color="#002d74"/>
      <stop offset="1" stop-color="#002d74" stop-opacity="0"/>
    </linearGradient>
    <linearGradient id="linear-gradient-2" x1="61.09" y1="-28.12" x2="61.09" y2="-118" xlink:href="#linear-gradient"/>
  </defs>
  <rect class="cls-3" width="200" height="200"/>
  <g>
    <path class="cls-2" d="m100.03,10.12L22.2,55.07v89.88l77.83,44.93,77.77-44.93V55.07L100.03,10.12Zm54.73,121.52l-54.73,31.61-54.76-31.61v-63.28l54.76-31.61,54.73,31.61v63.28Z"/>
    <path class="cls-1" d="m100.03,189.88l77.77-44.93V55.07L100.03,10.12v26.67l54.73,31.61v63.28l-54.73,31.58v26.64Z"/>
    <path class="cls-4" d="m99.97,10.12L22.2,55.04v89.88l77.77,44.96v-26.67l-54.73-31.61v-63.28l54.73-31.58V10.12Z"/>
    <path class="cls-2" d="m136.32,121l-36.32,20.97-36.35-20.97v-41.97l36.35-21,36.32,21-15.12,8.74-21.2-12.26-21.2,12.26v24.47l21.2,12.26,21.2-12.26,15.12,8.77Z"/>
  </g>
</svg>