<?xml version="1.0" encoding="UTF-8"?>
<svg id="Layer_1" data-name="Layer 1" xmlns="http://www.w3.org/2000/svg" viewBox="0 0 200 200">
  <defs>
    <style>
      .cls-1 {
        fill: #fafafa;
      }

      .cls-2 {
        fill: #26d9d0;
        fill-rule: evenodd;
      }
    </style>
  </defs>
  <rect class="cls-1" x="-.08" width="200" height="200"/>
  <g id="Finals">
    <g id="Artboard">
      <path id="mainnet-icon" class="cls-2" d="m64.18,113.27l2.2,2.24-33.97,34.06c-7.73-10.5-13.06-22.87-15.2-36.3h46.97Zm31.28,31.98h74.95c-14.9,23.16-40.9,38.5-70.49,38.5-24.35,0-46.26-10.39-61.56-26.97l34.52-34.61,22.58,23.08Zm-48.55-64.22h53.87l-27.82,27.89-4.85-4.96H16.26c-.06-1.31-.09-2.64-.09-3.97,0-14.37,3.62-27.89,9.99-39.71l20.75,20.74Zm32.55,34.55l32.6-32.67,31.5,30.37h39.06c-1.27,7.99-3.68,15.61-7.04,22.67h-76.21l-19.91-20.37Zm52.32-65.63l-21.72,21.77h-59.3l-19.58-19.58c15.13-21.71,40.28-35.9,68.73-35.9s51.89,13.25,67.15,33.7h-35.29Zm51.89,50.05c0,1.33-.03,2.65-.09,3.97h-36.26l-28.7-27.66,17.02-17.05h37.45c6.73,12.06,10.57,25.95,10.57,40.75Z"/>
    </g>
  </g>
</svg>