<?xml version="1.0" encoding="UTF-8"?>
<svg id="Layer_1" data-name="Layer 1" xmlns="http://www.w3.org/2000/svg" viewBox="0 0 200 200">
  <defs>
    <style>
      .cls-1 {
        fill: #cf0;
      }

      .cls-2 {
        fill: #1cd8d2;
      }
    </style>
  </defs>
  <rect width="200" height="200"/>
  <g>
    <path class="cls-1" d="m70.94,134.07c-3.25,0-6.01-2.33-6.56-5.54L45.84,19.51c-.3-1.75.1-3.52,1.13-4.97,1.03-1.45,2.56-2.41,4.31-2.71,3.62-.61,7.07,1.83,7.68,5.45l18.54,109.01c.3,1.75-.1,3.52-1.13,4.97-1.03,1.45-2.56,2.41-4.31,2.71-.36.06-.74.09-1.12.09Z"/>
    <path class="cls-1" d="m70.94,134.07c-3.25,0-6.01-2.33-6.56-5.54L45.84,19.51c-.3-1.75.1-3.52,1.13-4.97,1.03-1.45,2.56-2.41,4.31-2.71,3.62-.61,7.07,1.83,7.68,5.45l18.54,109.01c.3,1.75-.1,3.52-1.13,4.97-1.03,1.45-2.56,2.41-4.31,2.71-.36.06-.74.09-1.12.09Z"/>
    <path class="cls-1" d="m102.02,83.79c-10.59,0-20.46,3.18-28.7,8.62l2.24,13.19c7.09-6.17,16.34-9.92,26.46-9.92,22.25,0,40.34,18.1,40.34,40.35s-18.1,40.34-40.34,40.34-40.35-18.1-40.35-40.34c0-2.97.33-5.85.94-8.64l-3.57-21.01c-5.83,8.43-9.26,18.64-9.26,29.65,0,28.8,23.43,52.24,52.24,52.24s52.24-23.43,52.24-52.24-23.43-52.24-52.24-52.24Z"/>
    <g>
      <circle class="cls-2" cx="99.17" cy="159.39" r="7.11"/>
      <circle class="cls-2" cx="121.39" cy="151.11" r="7.11"/>
      <circle class="cls-2" cx="103.91" cy="135.86" r="7.11"/>
      <circle class="cls-2" cx="81.83" cy="143.13" r="7.11"/>
      <circle class="cls-2" cx="125.93" cy="128.57" r="7.11"/>
      <circle class="cls-2" cx="108.66" cy="112.32" r="7.11"/>
      <circle class="cls-2" cx="86.37" cy="120.59" r="7.11"/>
    </g>
  </g>
</svg>