<?xml version="1.0" encoding="UTF-8"?>
<svg id="Layer_1" data-name="Layer 1" xmlns="http://www.w3.org/2000/svg" viewBox="0 0 200 200">
  <defs>
    <style>
      .cls-1 {
        fill: #00b43c;
      }

      .cls-2 {
        fill: #fff;
      }
    </style>
  </defs>
  <rect class="cls-1" width="200" height="200"/>
  <g id="rsk_logo_reverse" data-name="rsk logo reverse">
    <path id="Shape" class="cls-2" d="m181.71,90.88c-.49-.24-12.86-6.85-23.39-.73-8.45,4.89-10.04,14.56-10.41,18.6l-3.8,2.2c-1.96-1.96-4.53-3.06-7.47-3.06s-5.51,1.1-7.47,3.06l-17.76-10.28c.24-.86.37-1.71.37-2.57,0-4.89-3.31-9.05-7.72-10.28v-6.36c5.14-3.3,21.56-15.42,21.56-34.63,0-22.27-22.05-36.09-23.03-36.71l-1.59-.98-1.59.98c-.98.61-23.03,14.44-23.03,36.71,0,19.21,16.41,31.32,21.56,34.63v6.36c-4.53,1.22-7.72,5.38-7.72,10.28,0,.86.12,1.71.37,2.57l-17.76,10.28c-1.96-1.84-4.53-3.06-7.47-3.06-5.88,0-10.78,4.77-10.78,10.77,0,4.89,3.31,9.05,7.72,10.28v21.29c-4.29,1.22-7.59,5.38-7.59,10.28,0,5.87,4.78,10.77,10.78,10.77,3.18,0,6-1.35,7.96-3.55l17.27,9.91c-.24.86-.37,1.71-.37,2.57,0,5.87,4.78,10.64,10.78,10.64s10.78-4.77,10.78-10.64c0-.86-.12-1.71-.37-2.57l17.27-9.91c1.96,2.2,4.78,3.55,7.96,3.55,5.88,0,10.78-4.77,10.78-10.77,0-4.89-3.31-9.05-7.72-10.28v-21.29c4.41-1.35,7.72-5.38,7.72-10.28,0-.86-.12-1.71-.24-2.45l3.92-2.2c2.33,1.1,6.74,2.81,11.76,2.81,3.06,0,6.37-.61,9.55-2.45,10.41-6,11.02-20.07,11.02-20.56v-1.84l-1.84-1.1Zm-42.13,31.44c-.86.61-1.84.98-2.94.98-.61,0-1.1-.12-1.71-.37-.49-.12-.86-.37-1.22-.73-.98-.73-1.59-1.84-1.84-3.06v-1.35c.24-1.71,1.35-3.18,2.94-3.79.49-.24,1.1-.37,1.71-.37s1.35.12,1.84.37c1.71.73,2.94,2.45,2.94,4.4,0,.24,0,.49-.12.73,0,1.47-.73,2.45-1.59,3.18m1.84,38.17c0,2.69-2.2,4.77-4.78,4.77-.86,0-1.84-.24-2.45-.73-1.35-.86-2.33-2.32-2.33-4.04v-.12h0c0-.49.12-.98.24-1.47.24-.86.86-1.59,1.59-2.2.61-.49,1.35-.86,2.08-.98.24,0,.49-.12.86-.12,1.1,0,2.2.37,2.94.98,1.1.98,1.84,2.32,1.84,3.92m-7.72-10.28c-1.47.37-2.82,1.1-3.92,2.08l-18.25-10.52h0c.12-.73.24-1.35.24-2.08,0-.98-.12-2.08-.49-2.94l17.88-10.28c1.22,1.22,2.69,2.08,4.41,2.57v21.17h.12Zm-32.7,34.75c-2.45,0-4.41-1.71-4.78-4.04v-.73c0-1.96,1.22-3.67,2.94-4.4.61-.24,1.22-.37,1.84-.37s1.22.12,1.84.37c1.71.73,2.94,2.45,2.94,4.4v.73c-.37,2.32-2.33,4.04-4.78,4.04m-10.53-43.19l-18.25,10.52c-1.1-.98-2.45-1.71-3.92-2.08v-21.29c1.71-.49,3.18-1.35,4.41-2.57l17.88,10.28c-.24.98-.49,1.96-.49,3.06.24.73.24,1.47.37,2.08h0Zm-20.21,18.72c0,1.71-.86,3.18-2.33,4.04-.73.49-1.59.73-2.45.73-2.69,0-4.78-2.2-4.78-4.77,0-1.47.73-2.94,1.84-3.79.86-.61,1.84-.98,2.94-.98.24,0,.61,0,.86.12.86.12,1.47.49,2.08.98.73.49,1.22,1.35,1.59,2.2.12.49.24.98.24,1.47q0-.12,0,0m-9.68-41.84c0-2.69,2.2-4.77,4.78-4.77.61,0,1.22.12,1.71.37,1.59.61,2.69,2.08,2.94,3.79v1.47c-.12,1.22-.86,2.32-1.84,3.06-.37.24-.73.49-1.22.73-.49.24-1.1.37-1.71.37-1.1,0-2.2-.37-2.94-.98-.98-1.22-1.71-2.57-1.71-4.04m37.48-24.35c.86-.61,1.84-.98,2.94-.98s2.2.37,2.94.98c.98.73,1.59,1.84,1.71,3.06v.73c0,1.47-.73,2.94-1.84,3.79-.37.24-.73.49-1.22.73s-1.1.37-1.71.37-1.22-.12-1.71-.37c-.49-.12-.86-.37-1.22-.73-1.1-.86-1.84-2.2-1.84-3.79v-.73c.37-1.22.98-2.32,1.96-3.06m7.72,45.52c0,1.47-.73,2.69-1.84,3.55-.24.12-.49.37-.73.49-.73.37-1.47.61-2.33.61s-1.59-.24-2.2-.61c-.24-.12-.49-.24-.73-.49-1.1-.86-1.84-2.2-1.84-3.67v-.12c0-.49,0-.86.12-1.22.24-.98.86-1.84,1.59-2.57.49-.37,1.1-.73,1.84-.86.37-.12.73-.12,1.22-.12s.86,0,1.22.12c.61.12,1.22.49,1.71.86.73.61,1.35,1.47,1.59,2.45.12.37.12.86.12,1.35.24.12.24.24.24.24h0Zm20.45-23.86c-.24.86-.37,1.71-.37,2.57s.12,1.84.37,2.69l-18.13,10.4c-1.22-1.1-2.57-1.84-4.16-2.32v-20.92c1.71-.49,3.18-1.35,4.41-2.57l17.88,10.16Zm-43.85-69.13c0-15.78,13.84-27.16,18.62-30.59,4.78,3.43,18.62,14.8,18.62,30.59,0,13.21-9.8,22.76-15.68,27.28v-24.84c0-1.59-1.35-2.94-2.94-2.94s-2.94,1.35-2.94,2.94v24.96c-5.88-4.65-15.68-14.07-15.68-27.41m11.15,58.97c1.22,1.22,2.82,2.08,4.41,2.57v21.04c-1.59.49-2.94,1.22-4.16,2.32l-18.13-10.4c.24-.86.37-1.71.37-2.57s-.12-1.71-.37-2.57l17.88-10.4Zm-17.51,56.53c.12-.61.12-1.22.12-1.84,0-1.1-.12-2.2-.49-3.3l17.64-10.16c1.22,1.35,2.94,2.32,4.78,2.94v19.94c-1.71.49-3.18,1.35-4.53,2.57l-17.51-10.16Zm32.46,10.16c-1.22-1.22-2.82-2.08-4.53-2.57v-19.94c1.84-.49,3.55-1.59,4.78-2.94l17.64,10.16c-.37.98-.49,2.08-.49,3.3,0,.61,0,1.22.12,1.84l-17.51,10.16Zm60.87-63.38c-3.92,2.32-8.33,1.84-11.76.98l5.88-3.43c1.47-.86,1.96-2.57,1.1-4.04-.86-1.47-2.57-1.96-4.04-1.1l-5.88,3.43c.86-3.3,2.82-7.34,6.74-9.67,5.63-3.3,12.62-1.22,15.8.12-.49,3.3-2.2,10.4-7.84,13.7"/>
  </g>
</svg>