<?xml version="1.0" encoding="UTF-8"?>
<svg id="Layer_1" data-name="Layer 1" xmlns="http://www.w3.org/2000/svg" viewBox="0 0 200 200">
  <defs>
    <style>
      .cls-1 {
        fill: #04795b;
      }

      .cls-2 {
        fill: #efefef;
      }
    </style>
  </defs>
  <rect class="cls-1" width="200" height="200"/>
  <g id="Page-1">
    <g id="Aatar_green_white" data-name="Aatar green white">
      <path id="Path" class="cls-2" d="m70.25,110c4.32,0,8.31-1.44,11.52-3.93l-26.37-26.36c-2.49,3.16-3.93,7.14-3.93,11.52-.06,10.36,8.37,18.77,18.78,18.77Z"/>
      <path id="Path-2" data-name="Path" class="cls-2" d="m148.7,91.17c0-4.32-1.44-8.31-3.93-11.52l-26.37,26.36c3.16,2.49,7.15,3.93,11.52,3.93,10.36.06,18.78-8.36,18.78-18.77Z"/>
      <path id="Path-3" data-name="Path" class="cls-2" d="m161.99,62.53l-11.69,11.69c3.88,4.65,6.21,10.52,6.21,17.06,0,14.68-11.91,26.58-26.59,26.58-6.48,0-12.41-2.33-17.06-6.2l-12.8,12.79-12.8-12.79c-4.65,3.88-10.53,6.2-17.06,6.2-14.68,0-26.59-11.91-26.59-26.58,0-6.48,2.33-12.41,6.21-17.06l-5.98-5.98-5.71-5.7c-6.65,10.97-10.47,23.76-10.47,37.49,0,39.99,32.41,72.33,72.36,72.33s72.36-32.4,72.36-72.33c.11-13.79-3.71-26.58-10.36-37.49Z"/>
      <path id="Shape" class="cls-2" d="m152.41,50.07c-13.13-13.79-31.75-22.43-52.36-22.43s-39.17,8.64-52.36,22.43c-1.77,1.88-3.49,3.88-5.1,5.93l57.4,57.38,57.4-57.43c-1.44-1.99-3.16-4.04-4.99-5.87Zm-52.36-13.01c16.95,0,32.69,6.53,44.49,18.44l-44.49,44.47-44.49-44.47c11.86-11.91,27.54-18.44,44.49-18.44Z"/>
    </g>
  </g>
</svg>