<?xml version="1.0" encoding="UTF-8"?>
<svg id="Layer_1" data-name="Layer 1" xmlns="http://www.w3.org/2000/svg" viewBox="0 0 200 200">
  <defs>
    <style>
      .cls-1 {
        fill: #fff;
      }
    </style>
  </defs>
  <rect width="200" height="200"/>
  <g id="avalanche-avax-logo">
    <path id="Shape" class="cls-1" d="m135.62,114.45c3.5-6.03,9.14-6.03,12.64,0l21.79,38.19c3.5,6.03.64,10.96-6.36,10.96h-43.89c-6.92,0-9.78-4.92-6.36-10.96l22.19-38.19Zm-42.14-73.52c3.5-6.03,9.06-6.03,12.56,0l4.85,8.73,11.45,20.09c2.78,5.72,2.78,12.47,0,18.18l-38.41,66.46c-3.5,5.4-9.3,8.81-15.74,9.21h-31.89c-7,0-9.86-4.84-6.36-10.96l63.53-111.71Z"/>
  </g>
</svg>