<?xml version="1.0" encoding="UTF-8"?>
<svg id="Layer_1" data-name="Layer 1" xmlns="http://www.w3.org/2000/svg" viewBox="0 0 200 200">
  <defs>
    <style>
      .cls-1 {
        fill: #fff;
      }

      .cls-2 {
        fill: #1969ff;
      }
    </style>
  </defs>
  <rect class="cls-2" width="200" height="200"/>
  <path class="cls-1" d="m93.1,21.83c3.87-2.04,9.77-2.04,13.64,0l39.53,20.77c2.33,1.23,3.61,3.05,3.84,4.94h.04v104.42c-.05,2.06-1.34,4.1-3.88,5.43l-39.53,20.77c-3.87,2.04-9.77,2.04-13.64,0l-39.53-20.77c-2.53-1.33-3.74-3.39-3.8-5.43,0-.2,0-.37,0-.51V48.21c0-.11,0-.23,0-.34v-.33s.02,0,.02,0c.18-1.91,1.4-3.69,3.78-4.94l39.53-20.77Zm50.83,83.97l-37.19,19.54c-3.87,2.04-9.77,2.04-13.64,0l-37.11-19.5v45.91l37.11,19.4c2.1,1.11,4.27,2.2,6.4,2.34h.42c2.22.02,4.37-1.1,6.55-2.16l37.46-19.75v-45.79Zm-100.59,43.9c0,4,.47,6.63,1.4,8.48.77,1.54,1.92,2.71,4.03,4.14l.12.08c.46.31.97.64,1.59,1.02l.73.45,2.25,1.35-3.22,5.3-2.51-1.51-.42-.26c-.73-.45-1.33-.83-1.89-1.21-6.01-4.03-8.24-8.42-8.29-17.56v-.28s6.22,0,6.22,0Zm53.47-71.88c-.29.1-.56.21-.8.34l-39.53,20.77s-.08.04-.12.06l-.03.02.06.04.09.05,39.53,20.77c.25.13.52.24.8.34v-42.4Zm6.22,0v42.4c.29-.1.56-.21.8-.34l39.53-20.77s.08-.04.12-.06l.03-.02-.06-.04-.09-.05-39.53-20.77c-.25-.13-.52-.24-.8-.34Zm40.9-22.86l-35.46,18.64,35.46,18.64v-37.27Zm-87.94.04v37.18l35.38-18.59-35.38-18.59Zm47.85-27.69c-2.06-1.08-5.78-1.08-7.83,0l-39.53,20.77s-.08.04-.12.06l-.03.02.06.04.09.05,39.53,20.77c2.06,1.08,5.78,1.08,7.83,0l39.53-20.77s.08-.04.12-.06l.03-.02-.06-.04-.09-.05-39.53-20.77Zm45.94,2.28l2.51,1.51.42.26c.73.45,1.33.83,1.89,1.21,6.01,4.03,8.24,8.42,8.29,17.56v.28s-6.22,0-6.22,0c0-4-.47-6.63-1.4-8.48-.77-1.54-1.92-2.71-4.03-4.14l-.12-.08c-.46-.31-.97-.64-1.59-1.02l-.73-.45-2.25-1.35,3.22-5.3Z"/>
</svg>