<?xml version="1.0" encoding="UTF-8"?>
<svg id="Layer_1" data-name="Layer 1" xmlns="http://www.w3.org/2000/svg" viewBox="0 0 200 200">
  <defs>
    <style>
      .cls-1 {
        fill: #fff;
      }
    </style>
  </defs>
  <rect x="0" width="200" height="200"/>
  <g>
    <path class="cls-1" d="m75.96,107.67h14.24c.33,0,.6.27.6.6v17.49c0,.23-.13.45-.34.55-2.03.94-5.55,1.66-10.79,1.66-14.3,0-23.27-9.08-23.27-24.06s9.18-23.1,24.13-23.1c5.07,0,9.03,1.5,11.93,2.81.32.15.7-.01.82-.35l1.02-2.87c.11-.3-.03-.62-.32-.75-2.47-1.11-7.53-2.96-13.25-2.96-19,0-29.42,12.02-29.43,27.45,0,8.74,3,16.13,7.66,20.62,5.55,5.34,12.37,7.31,20.11,7.31,6.3,0,11.49-1.28,14.76-2.38,1.09-.37,1.82-1.4,1.82-2.55v-22.84c0-.33-.27-.6-.6-.6h-19.09c-.33,0-.6.27-.6.6v2.76c0,.33.27.6.6.6Z"/>
    <path class="cls-1" d="m126.52,90.03c-10.25,0-19.13,7.78-19.13,21.52,0,12.7,8.05,20.87,18.54,20.87,9.09,0,19.3-6.5,19.3-21.59,0-12.31-7.53-20.8-18.71-20.8Zm-.32,38.39c-7.81,0-13.84-7.22-13.84-17.08,0-8.49,4.39-17.31,14.04-17.31s13.87,9.75,13.87,17.02c0,10.14-6.22,17.38-14.06,17.38Z"/>
    <path class="cls-1" d="m133.46,83.9c2.07,0,3.36-1.72,3.36-3.6,0-1.98-1.41-3.6-3.3-3.6s-3.43,1.68-3.43,3.6,1.31,3.6,3.37,3.6Z"/>
    <path class="cls-1" d="m119.1,83.9c2.06,0,3.35-1.72,3.35-3.6,0-1.98-1.41-3.6-3.29-3.6s-3.44,1.68-3.44,3.6,1.32,3.6,3.38,3.6Z"/>
  </g>
</svg>