<?xml version="1.0" encoding="UTF-8"?>
<svg id="Layer_1" data-name="Layer 1" xmlns="http://www.w3.org/2000/svg" viewBox="0 0 200 200">
  <defs>
    <style>
      .cls-1 {
        fill: #fff;
      }

      .cls-2 {
        fill: #96bedc;
      }

      .cls-3 {
        fill: #2d374b;
      }

      .cls-4 {
        fill: #28a0f0;
      }
    </style>
  </defs>
  <rect class="cls-3" width="200" height="200"/>
  <g id="Logos_and_symbols" data-name="Logos and symbols">
    <g id="SYMBOL_VER_1-1" data-name="SYMBOL VER 1-1">
      <g id="Symbol_-_Original" data-name="Symbol - Original">
        <path class="cls-3" d="m120.18,91.5l13.15-22.32,35.46,55.22.02,10.6-.12-72.93c-.08-1.78-1.03-3.41-2.54-4.38l-63.83-36.72c-1.49-.73-3.39-.73-4.88.02-.2.1-.39.21-.57.33l-.22.14-61.96,35.9-.24.11c-.31.14-.62.32-.91.53-1.18.84-1.95,2.09-2.21,3.49-.04.21-.07.43-.08.65l.1,59.43,33.02-51.19c4.16-6.79,13.22-8.97,21.63-8.85l9.87.26-58.16,93.27,6.86,3.95,58.85-97.12,26.01-.09-58.7,99.57,24.46,14.07,2.92,1.68c1.24.5,2.69.53,3.94.08l64.73-37.51-12.38,7.17-34.23-55.36Zm5.02,72.28l-24.71-38.78,15.08-25.59,32.45,51.14-22.82,13.23Z"/>
        <polygon class="cls-4" points="100.49 125 125.2 163.78 148.02 150.55 115.57 99.41 100.49 125"/>
        <path class="cls-4" d="m168.81,135l-.02-10.6-35.46-55.22-13.15,22.32,34.23,55.35,12.38-7.17c1.21-.99,1.95-2.43,2.03-3.99v-.69Z"/>
        <path class="cls-1" d="m20.23,144.99l17.48,10.07,58.16-93.27-9.87-.26c-8.41-.12-17.47,2.07-21.63,8.85l-33.02,51.19-11.11,17.07v6.34Z"/>
        <polygon class="cls-1" points="129.43 61.8 103.42 61.89 44.56 159.01 65.13 170.85 70.73 161.37 129.43 61.8"/>
        <path class="cls-2" d="m179.77,61.66c-.22-5.44-3.16-10.42-7.78-13.32L107.32,11.15c-4.56-2.3-10.27-2.3-14.84,0-.54.27-62.89,36.43-62.89,36.43-.86.41-1.69.91-2.48,1.47-4.12,2.95-6.63,7.54-6.89,12.58v77.02l11.11-17.07-.1-59.43c.01-.22.04-.43.08-.64.25-1.4,1.03-2.65,2.21-3.49.29-.21,63.71-36.92,63.91-37.02,1.49-.75,3.38-.76,4.88-.02l63.83,36.72c1.51.96,2.46,2.59,2.54,4.38v73.62c-.08,1.56-.69,3.01-1.91,3.99l-12.38,7.17-6.39,3.7-22.82,13.23-23.15,13.41c-1.25.45-2.7.43-3.94-.08l-27.38-15.75-5.59,9.49,24.61,14.17c.81.46,1.54.87,2.13,1.21.92.52,1.55.86,1.77.97,1.75.85,4.27,1.34,6.53,1.34,2.08,0,4.11-.38,6.03-1.13l67.23-38.93c3.86-2.99,6.13-7.5,6.33-12.38V61.66h0Z"/>
      </g>
    </g>
  </g>
</svg>