<?xml version="1.0" encoding="UTF-8"?>
<svg id="Layer_1" data-name="Layer 1" xmlns="http://www.w3.org/2000/svg" viewBox="0 0 200 200">
  <defs>
    <style>
      .cls-1 {
        fill: #fafafa;
      }

      .cls-2 {
        fill: #8247e5;
      }
    </style>
  </defs>
  <rect class="cls-1" x="-.08" width="200" height="200"/>
  <path class="cls-2" d="m139.24,73.85c-2.79-1.6-6.39-1.6-9.58,0l-22.36,13.18-15.17,8.38-21.96,13.18c-2.79,1.6-6.39,1.6-9.58,0l-17.17-10.38c-2.79-1.6-4.79-4.79-4.79-8.38v-19.96c0-3.19,1.6-6.39,4.79-8.38l17.17-9.98c2.79-1.6,6.39-1.6,9.58,0l17.17,10.38c2.79,1.6,4.79,4.79,4.79,8.38v13.18l15.17-8.78v-13.57c0-3.19-1.6-6.39-4.79-8.38l-31.94-18.77c-2.79-1.6-6.39-1.6-9.58,0l-32.74,19.16c-3.19,1.6-4.79,4.79-4.79,7.99v37.53c0,3.19,1.6,6.39,4.79,8.38l32.34,18.77c2.79,1.6,6.39,1.6,9.58,0l21.96-12.78,15.17-8.78,21.96-12.78c2.79-1.6,6.39-1.6,9.58,0l17.17,9.98c2.79,1.6,4.79,4.79,4.79,8.38v19.96c0,3.19-1.6,6.39-4.79,8.38l-16.77,9.98c-2.79,1.6-6.39,1.6-9.58,0l-17.17-9.98c-2.79-1.6-4.79-4.79-4.79-8.38v-12.78l-15.17,8.78v13.18c0,3.19,1.6,6.39,4.79,8.38l32.34,18.77c2.79,1.6,6.39,1.6,9.58,0l32.34-18.77c2.79-1.6,4.79-4.79,4.79-8.38v-37.93c0-3.19-1.6-6.39-4.79-8.38l-32.34-18.77Z"/>
</svg>