<?xml version="1.0" encoding="UTF-8"?>
<svg id="Layer_1" data-name="Layer 1" xmlns="http://www.w3.org/2000/svg" viewBox="0 0 200 200">
  <defs>
    <style>
      .cls-1 {
        fill: #fff;
      }
    </style>
  </defs>
  <rect x="0" width="200" height="200"/>
  <g>
    <path id="Shape" class="cls-1" d="m54.36,139.69c-8.75,0-15.91-2.06-21.5-6.17-5.51-4.19-8.27-10.14-8.27-17.86,0-1.62.18-3.6.55-5.95.96-5.29,2.32-11.65,4.08-19.07,5-20.21,17.9-30.32,38.7-30.32,5.66,0,10.73.96,15.21,2.87,4.48,1.84,8.01,4.63,10.58,8.38,2.57,3.67,3.86,8.08,3.86,13.23,0,1.54-.18,3.49-.55,5.84-1.1,6.54-2.43,12.9-3.97,19.07-2.57,10.07-7.02,17.6-13.34,22.6-6.32,4.92-14.77,7.39-25.36,7.39Zm1.54-15.88c4.12,0,7.61-1.21,10.47-3.64,2.94-2.43,5.03-6.14,6.28-11.13,1.69-6.91,2.98-12.94,3.86-18.08.29-1.54.44-3.12.44-4.74,0-6.69-3.49-10.03-10.47-10.03-4.12,0-7.64,1.21-10.58,3.64-2.87,2.43-4.92,6.14-6.17,11.14-1.32,4.92-2.65,10.95-3.97,18.08-.29,1.47-.44,3.01-.44,4.63,0,6.76,3.53,10.14,10.58,10.14Z"/>
    <path id="Shape-2" data-name="Shape" class="cls-1" d="m102.64,138.59c-.81,0-1.43-.26-1.87-.77-.37-.59-.48-1.25-.33-1.98l15.21-71.66c.15-.81.55-1.47,1.21-1.98.66-.51,1.36-.77,2.09-.77h29.33c8.16,0,14.7,1.69,19.62,5.07,5,3.38,7.5,8.27,7.5,14.66,0,1.84-.22,3.75-.66,5.73-1.84,8.45-5.55,14.7-11.13,18.74-5.51,4.04-13.08,6.06-22.71,6.06h-14.88l-5.07,24.14c-.15.81-.55,1.47-1.21,1.98-.66.51-1.36.77-2.09.77h-14.99Zm39.03-42.12c3.09,0,5.77-.85,8.05-2.54,2.35-1.69,3.9-4.12,4.63-7.28.22-1.25.33-2.35.33-3.31,0-2.13-.62-3.75-1.87-4.85-1.25-1.18-3.38-1.76-6.39-1.76h-13.23l-4.19,19.73h12.68Z"/>
  </g>
</svg>