<?xml version="1.0" encoding="UTF-8"?>
<svg id="Layer_1" data-name="Layer 1" xmlns="http://www.w3.org/2000/svg" viewBox="0 0 200 200">
  <defs>
    <style>
      .cls-1 {
        fill: #f3ba2f;
      }

      .cls-2 {
        fill: #fff;
        fill-rule: evenodd;
      }
    </style>
  </defs>
  <rect class="cls-1" x="0" width="200" height="200"/>
  <g>
    <polygon id="Path" class="cls-2" points="99.56 25.15 59.93 48.3 74.5 56.85 99.56 42.25 124.62 56.85 139.19 48.3 99.56 25.15"/>
    <polygon id="Path-2" data-name="Path" class="cls-2" points="124.62 69.18 139.19 77.68 139.19 94.67 114.13 109.17 114.13 138.17 99.56 146.67 84.99 138.17 84.99 109.17 59.93 94.67 59.93 77.68 74.5 69.18 99.56 83.68 124.62 69.18"/>
    <polygon id="Path-3" data-name="Path" class="cls-2" points="140.07 106.16 140.07 123.19 125.1 131.7 125.1 114.68 140.07 106.16"/>
    <polygon id="Path-4" data-name="Path" class="cls-2" points="125.1 143.84 150.15 129.41 150.15 100.53 164.72 92.07 164.72 137.87 125.1 160.76 125.1 143.84"/>
    <polygon id="Path-5" data-name="Path" class="cls-2" points="150.19 70.94 135.66 62.58 150.19 54.21 164.72 62.58 164.72 79.31 150.19 87.67 150.19 70.94"/>
    <polygon id="Path-6" data-name="Path" class="cls-2" points="85.47 166.34 85.47 149.31 100 157.82 114.53 149.31 114.53 166.34 100 174.85 85.47 166.34"/>
    <polygon id="Path-7" data-name="Path" class="cls-2" points="74.9 131.7 59.93 123.19 59.93 106.16 74.9 114.68 74.9 131.7"/>
    <polygon id="Path-8" data-name="Path" class="cls-2" points="100 70.94 85.47 62.58 100 54.21 114.53 62.58 100 70.94"/>
    <polygon id="Path-9" data-name="Path" class="cls-2" points="64.34 62.58 49.81 70.94 49.81 87.67 35.28 79.31 35.28 62.58 49.81 54.21 64.34 62.58"/>
    <polygon id="Path-10" data-name="Path" class="cls-2" points="35.28 92.07 49.85 100.53 49.85 129.41 74.9 143.84 74.9 160.76 35.28 137.87 35.28 92.07"/>
  </g>
</svg>