<?xml version="1.0" encoding="UTF-8"?>
<svg id="Layer_1" data-name="Layer 1" xmlns="http://www.w3.org/2000/svg" viewBox="0 0 200 200">
  <defs>
    <style>
      .cls-1 {
        fill: #69b569;
      }

      .cls-2 {
        fill: #68a763;
      }

      .cls-3 {
        fill: #e7f6ad;
      }

      .cls-4 {
        fill: #f1fac5;
      }

      .cls-5 {
        fill: #fafafa;
      }

      .cls-6 {
        fill: #e5f4b4;
      }

      .cls-7 {
        fill: #e2f4aa;
      }

      .cls-8 {
        fill: #7dc77a;
      }

      .cls-9 {
        fill: #80b771;
      }

      .cls-10 {
        fill: #7cc274;
      }

      .cls-11 {
        fill: #73b96e;
      }

      .cls-12 {
        fill: #67bd6f;
      }

      .cls-13 {
        fill: #9bd587;
      }

      .cls-14 {
        fill: #91cf81;
      }

      .cls-15 {
        fill: #89c27a;
      }

      .cls-16 {
        fill: #b8e19b;
      }

      .cls-17 {
        fill: #a0d588;
      }

      .cls-18 {
        fill: #b3de93;
      }

      .cls-19 {
        fill: #8ecc7e;
      }

      .cls-20 {
        fill: #65bb6e;
      }

      .cls-21 {
        fill: #327b48;
      }

      .cls-22 {
        fill: #2f944f;
      }

      .cls-23 {
        fill: #8dcb7e;
      }

      .cls-24 {
        fill: #92cc83;
      }

      .cls-25 {
        fill: #84c879;
      }

      .cls-26 {
        fill: #ceeaaf;
      }

      .cls-27 {
        fill: #a4d589;
      }

      .cls-28 {
        fill: #a4d78c;
      }

      .cls-29 {
        fill: #aada8d;
      }

      .cls-30 {
        fill: #acdd8e;
      }

      .cls-31 {
        fill: #d7eeab;
      }

      .cls-32 {
        fill: #a3d88a;
      }

      .cls-33 {
        fill: #c0e597;
      }

      .cls-34 {
        fill: #bbe098;
      }

      .cls-35 {
        fill: #bfe3a4;
      }

      .cls-36 {
        fill: #bee598;
      }

      .cls-37 {
        fill: #c9e99b;
      }

      .cls-38 {
        fill: #cfeb9f;
      }

      .cls-39 {
        fill: #dcf1a7;
      }

      .cls-40 {
        fill: #d0eca1;
      }

      .cls-41 {
        fill: #c3e699;
      }

      .cls-42 {
        fill: #abd68f;
      }

      .cls-43 {
        fill: #aedc90;
      }

      .cls-44 {
        fill: #c5e7a2;
      }

      .cls-45 {
        fill: #def2ba;
      }

      .cls-46 {
        fill: #1d7b42;
      }

      .cls-47 {
        fill: #418d52;
      }

      .cls-48 {
        fill: #40a85b;
      }

      .cls-49 {
        fill: #409554;
      }

      .cls-50 {
        fill: #409555;
      }

      .cls-51 {
        fill: #3f9954;
      }

      .cls-52 {
        fill: #349950;
      }

      .cls-53 {
        fill: #3da459;
      }

      .cls-54 {
        fill: #93c67c;
      }

      .cls-55 {
        fill: #9ace81;
      }

      .cls-56 {
        fill: #6e9d66;
      }

      .cls-57 {
        fill: #53ab62;
      }

      .cls-58 {
        fill: #85ca7c;
      }

      .cls-59 {
        fill: #9ad486;
      }

      .cls-60 {
        fill: #81b571;
      }

      .cls-61 {
        fill: #54af63;
      }

      .cls-62 {
        fill: #589f5c;
      }

      .cls-63 {
        fill: #2a8e4b;
      }

      .cls-64 {
        fill: #62a761;
      }

      .cls-65 {
        fill: #2d914c;
      }

      .cls-66 {
        fill: #2e8148;
      }

      .cls-67 {
        fill: #58a862;
      }

      .cls-68 {
        fill: #379c54;
      }

      .cls-69 {
        fill: #568f56;
      }

      .cls-70 {
        fill: #4bb062;
      }

      .cls-71 {
        fill: #5dae65;
      }

      .cls-72 {
        fill: #61925c;
      }

      .cls-73 {
        fill: #619c5e;
      }

      .cls-74 {
        fill: #489e5a;
      }

      .cls-75 {
        fill: #5eaf64;
      }

      .cls-76 {
        fill: #489856;
      }

      .cls-77 {
        fill: #75b16a;
      }

      .cls-78 {
        fill: #60b76a;
      }

      .cls-79 {
        fill: #78ae6c;
      }

      .cls-80 {
        fill: #77c273;
      }

      .cls-81 {
        fill: #71af6a;
      }

      .cls-82 {
        fill: #519458;
      }

      .cls-83 {
        fill: #82c376;
      }

      .cls-84 {
        fill: #82ca7d;
      }

      .cls-85 {
        fill: #4fab60;
      }

      .cls-86 {
        fill: #80bc73;
      }

      .cls-87 {
        fill: #268846;
      }

      .cls-88 {
        fill: #7ac578;
      }
    </style>
  </defs>
  <rect class="cls-5" x="-.08" width="200" height="200"/>
  <g>
    <path class="cls-50" d="m104.08,15.85c-1.19-2.54-2.04-4.54-2.63-6.06-.49-1.27-2.27-1.27-2.77,0-.61,1.57-1.49,3.64-2.73,6.28l8.08-.31.05.1Z"/>
    <path class="cls-54" d="m130.9,55.06c-.53-.65-1.05-1.3-1.57-1.94l-1.83,1.58,3.4.36Z"/>
    <path class="cls-42" d="m150.05,79.95c-.94-1.31-1.93-2.67-2.97-4.1v5.72l2.97-1.62Z"/>
    <path class="cls-4" d="m153.51,166.76c3.04-3.4,5.69-7.09,7.93-11.03l-5.42,1.7-2.51,9.33Z"/>
    <path class="cls-16" d="m100.67,190c3.7-.03,7.33-.34,10.87-.88l-2.68-6.09-8.19,6.97Z"/>
    <path class="cls-40" d="m111.54,189.12c6.16-.95,12.05-2.65,17.55-5l6.13-19.82-26.35,18.73,2.68,6.09Z"/>
    <path class="cls-3" d="m135.22,164.3l6.24,13.04c4.46-3.07,8.51-6.63,12.05-10.58l2.51-9.33-20.8,6.87Z"/>
    <path class="cls-7" d="m141.46,177.34l-6.24-13.04-6.13,19.82c4.39-1.87,8.54-4.14,12.37-6.78Z"/>
    <path class="cls-6" d="m149.71,139.27l6.31,18.16,5.42-1.7c2.08-3.67,3.79-7.54,5.08-11.58l-16.81-4.88Z"/>
    <polygon class="cls-39" points="135.22 164.3 156.02 157.43 149.71 139.27 132.86 150 135.22 164.3"/>
    <polygon class="cls-37" points="113.19 150.28 135.22 164.3 132.86 150 113.19 150.28"/>
    <polygon class="cls-41" points="108.3 159.12 108.86 183.03 135.22 164.3 113.19 150.28 108.3 159.12"/>
    <path class="cls-28" d="m95.03,161.38l-12.14,19.86,2.02,7.24c4.86.99,9.91,1.54,15.09,1.54.23,0,.45-.01.67-.02l8.19-6.97-13.84-21.65Z"/>
    <polygon class="cls-43" points="108.86 183.03 108.3 159.12 95.03 161.38 108.86 183.03"/>
    <path class="cls-24" d="m77.31,186.5c2.47.79,5.01,1.45,7.6,1.98l-2.02-7.24-5.58,5.25Z"/>
    <path class="cls-15" d="m70.93,170.04l-.63,13.83c2.27.99,4.61,1.86,7,2.63l5.58-5.25-11.95-11.2Z"/>
    <path class="cls-60" d="m62.15,179.64c2.61,1.57,5.33,2.98,8.16,4.22l.63-13.83-8.79,9.6Z"/>
    <polygon class="cls-23" points="82.89 181.24 95.03 161.38 70.93 170.04 82.89 181.24"/>
    <path class="cls-79" d="m52.49,162.14l-.63,9.94c3.16,2.81,6.6,5.34,10.29,7.57l8.79-9.6-18.45-7.91Z"/>
    <polygon class="cls-77" points="52.49 162.14 70.93 170.04 69.81 141.62 52.49 162.14"/>
    <polygon class="cls-83" points="70.93 170.04 95.03 161.38 69.81 141.62 70.93 170.04"/>
    <polygon class="cls-25" points="69.81 141.62 95.03 161.38 90.61 141.62 69.81 141.62"/>
    <polygon class="cls-32" points="108.3 159.12 113.19 150.28 90.61 141.62 108.3 159.12"/>
    <polygon class="cls-13" points="95.03 161.38 108.3 159.12 90.61 141.62 95.03 161.38"/>
    <polygon class="cls-2" points="48.53 137.38 52.49 162.14 69.81 141.62 48.53 137.38"/>
    <path class="cls-69" d="m31.14,118.76c-.3,2.43-.47,4.9-.47,7.4,0,7.46,1.4,14.61,3.95,21.26l13.91-10.03-17.39-18.63Z"/>
    <path class="cls-73" d="m48.53,137.38l-13.91,10.03c.79,2.06,1.69,4.07,2.69,6.03l15.17,8.69-3.95-24.75Z"/>
    <path class="cls-72" d="m37.32,153.45c2.46,4.78,5.54,9.25,9.15,13.29l6.02-4.6-15.17-8.69Z"/>
    <path class="cls-56" d="m46.47,166.73c1.68,1.88,3.49,3.66,5.39,5.35l.63-9.94-6.02,4.6Z"/>
    <polygon class="cls-82" points="50.32 120.44 31.14 118.75 31.14 118.76 48.53 137.38 50.32 120.44"/>
    <path class="cls-47" d="m46.75,98.98l-12.68,7.43c-1.4,3.96-2.38,8.08-2.92,12.33l19.18,1.69-3.58-21.46Z"/>
    <polygon class="cls-76" points="46.75 98.98 50.32 120.44 65.19 105.67 46.75 98.98"/>
    <polygon class="cls-62" points="65.19 105.67 50.32 120.44 48.53 137.38 65.19 121.67 65.19 105.67"/>
    <polygon class="cls-64" points="65.19 121.67 48.53 137.38 69.81 141.62 65.19 121.67"/>
    <polygon class="cls-75" points="65.19 105.67 65.19 121.67 85.52 124.87 65.19 105.67"/>
    <polygon class="cls-1" points="65.19 121.67 69.81 141.62 85.52 124.87 65.19 121.67"/>
    <path class="cls-21" d="m40.23,93.8c-2.53,3.95-4.6,8.18-6.17,12.62l12.68-7.43-6.52-5.18Z"/>
    <path class="cls-66" d="m51.73,87.12l-5.12-2.28c-.81,1.15-1.54,2.21-2.19,3.14-1.51,1.86-2.91,3.81-4.19,5.82l6.52,5.18,4.99-11.86Z"/>
    <polygon class="cls-49" points="51.73 87.12 46.75 98.98 65.19 105.67 51.73 87.12"/>
    <polygon class="cls-51" points="69.81 77.52 51.73 87.12 65.19 105.67 69.81 77.52"/>
    <path class="cls-63" d="m69.81,77.52l-10.9-9.48c-2.79,3.65-5.4,7.18-7.72,10.38l.55,8.7,18.07-9.6Z"/>
    <path class="cls-46" d="m51.19,78.42c-1.7,2.35-3.24,4.52-4.57,6.42l5.12,2.28-.55-8.7Z"/>
    <path class="cls-65" d="m74.61,66.61l-10.37-5.36c-1.83,2.28-3.61,4.56-5.33,6.8l10.9,9.48,4.8-10.92Z"/>
    <path class="cls-87" d="m70.58,53.4c-1.82,2.24-3.7,4.56-5.67,7-.23.28-.45.57-.68.85l10.37,5.36-4.02-13.21Z"/>
    <path class="cls-52" d="m90.98,52.96l-13.74-7.85c-2.1,2.65-4.32,5.4-6.66,8.28l4.02,13.21,16.38-13.65Z"/>
    <polygon class="cls-53" points="74.61 66.61 69.81 77.52 84.11 77.05 74.61 66.61"/>
    <polygon class="cls-70" points="84.11 77.05 69.81 77.52 90.32 101.9 84.11 77.05"/>
    <polygon class="cls-85" points="90.32 101.9 69.81 77.52 65.19 105.67 90.32 101.9"/>
    <polygon class="cls-78" points="90.32 101.9 65.19 105.67 85.52 124.87 90.32 101.9"/>
    <polygon class="cls-80" points="69.81 141.62 90.61 141.62 85.52 124.87 69.81 141.62"/>
    <polygon class="cls-88" points="85.52 124.87 104.82 123.17 90.32 101.9 85.52 124.87"/>
    <polygon class="cls-58" points="90.61 141.62 104.82 123.17 85.52 124.87 90.61 141.62"/>
    <polygon class="cls-59" points="90.61 141.62 113.19 150.28 104.82 123.17 90.61 141.62"/>
    <polygon class="cls-33" points="132.86 150 131.55 127.03 113.19 150.28 132.86 150"/>
    <polygon class="cls-30" points="104.82 123.17 113.19 150.28 131.55 127.03 134.09 101.43 104.82 123.17"/>
    <polygon class="cls-38" points="131.55 127.03 132.86 150 149.71 139.27 150.46 123.17 131.55 127.03"/>
    <path class="cls-31" d="m150.46,123.17l-.75,16.09,19.57-15.45c-.04-1.09-.12-2.17-.22-3.24l-18.59,2.6Z"/>
    <path class="cls-45" d="m166.52,144.15c1.82-5.71,2.81-11.74,2.81-17.99,0-.78-.02-1.57-.05-2.34l-19.57,15.45,16.81,4.88Z"/>
    <polygon class="cls-36" points="131.55 127.03 150.46 123.17 150.46 95.88 134.09 101.43 131.55 127.03"/>
    <path class="cls-44" d="m150.46,123.17l13.91-20.71c-1.11-2.56-2.41-5.04-3.86-7.43l-10.06.84v27.29Z"/>
    <path class="cls-26" d="m164.38,102.46l-13.91,20.71,18.59-2.6c-.6-6.35-2.21-12.43-4.68-18.11Z"/>
    <polygon class="cls-18" points="150.46 95.88 147.08 81.57 134.09 101.43 150.46 95.88"/>
    <path class="cls-27" d="m135.69,79.31l11.39,2.26v-5.72c-1.89-2.57-3.93-5.3-6.07-8.1l-5.32,11.56Z"/>
    <polygon class="cls-29" points="147.08 81.57 135.69 79.31 134.09 101.43 147.08 81.57"/>
    <path class="cls-34" d="m150.46,95.88l7.75-4.38h0c-.46-.65-.93-1.29-1.41-1.93-1.55-2.27-3.9-5.64-6.75-9.62l-2.97,1.62,3.39,14.31Z"/>
    <path class="cls-35" d="m150.46,95.88l10.06-.84c-.73-1.2-1.5-2.39-2.31-3.54h0l-7.75,4.38Z"/>
    <polygon class="cls-13" points="134.09 101.43 115.64 94.65 104.82 123.17 134.09 101.43"/>
    <polygon class="cls-84" points="104.82 123.17 115.64 94.65 90.32 101.9 104.82 123.17"/>
    <polygon class="cls-12" points="114.51 79.31 84.11 77.05 90.32 101.9 114.51 79.31"/>
    <polygon class="cls-8" points="115.64 94.65 114.51 79.31 90.32 101.9 115.64 94.65"/>
    <polygon class="cls-20" points="106.42 57.29 84.11 77.05 114.51 79.31 106.42 57.29"/>
    <polygon class="cls-17" points="134.09 101.43 135.69 79.31 115.64 94.65 134.09 101.43"/>
    <polygon class="cls-14" points="115.64 94.65 135.69 79.31 114.51 79.31 115.64 94.65"/>
    <polygon class="cls-10" points="114.51 79.31 127.5 54.7 106.42 57.29 114.51 79.31"/>
    <polygon class="cls-48" points="84.11 77.05 90.98 52.96 74.61 66.61 84.11 77.05"/>
    <polygon class="cls-61" points="106.42 57.29 90.98 52.96 84.11 77.05 106.42 57.29"/>
    <polygon class="cls-19" points="135.69 79.31 127.5 54.7 114.51 79.31 135.69 79.31"/>
    <path class="cls-55" d="m135.69,79.31l5.32-11.56c-1.86-2.43-3.8-4.9-5.78-7.36-1.49-1.84-2.92-3.61-4.32-5.34l-3.4-.36,8.19,24.61Z"/>
    <path class="cls-68" d="m90.98,52.96l1.41-9.13-11.5-3.41h0c-1.17,1.54-2.38,3.1-3.64,4.69l13.74,7.85Z"/>
    <path class="cls-22" d="m92.39,43.83l-4.57-13.15h0c-2.13,3.25-4.43,6.45-6.93,9.74h0s11.5,3.41,11.5,3.41Z"/>
    <polygon class="cls-57" points="92.39 43.83 90.98 52.96 106.42 57.29 92.39 43.83"/>
    <polygon class="cls-71" points="108.21 41.48 92.39 43.83 106.42 57.29 108.21 41.48"/>
    <path class="cls-67" d="m108.21,41.48l.18-17.21h0c-.8-1.42-1.57-2.85-2.31-4.32l-13.68,23.88,15.81-2.35Z"/>
    <polygon class="cls-11" points="127.5 54.7 108.21 41.48 106.42 57.29 127.5 54.7"/>
    <path class="cls-9" d="m108.21,41.48l12.11.35c-1.57-2.04-3.07-4.04-4.5-6.04h0s-7.61,5.69-7.61,5.69Z"/>
    <path class="cls-86" d="m108.21,41.48l19.29,13.22,1.83-1.58c-3.23-3.98-6.23-7.7-9-11.28l-12.12-.36Z"/>
    <path class="cls-81" d="m108.21,41.48l7.61-5.69h0c-2.72-3.81-5.19-7.58-7.42-11.52h0s-.18,17.21-.18,17.21Z"/>
    <path class="cls-74" d="m92.39,43.83l13.68-23.88c-.76-1.51-1.42-2.86-2-4.1l-.05-.1-8.08.31c-.56,1.18-1.18,2.46-1.89,3.89-1.87,3.73-3.95,7.25-6.22,10.72v.02s4.56,13.15,4.56,13.15Z"/>
  </g>
</svg>