<?xml version="1.0" encoding="UTF-8"?>
<svg id="Layer_1" data-name="Layer 1" xmlns="http://www.w3.org/2000/svg" viewBox="0 0 200 200">
  <defs>
    <style>
      .cls-1 {
        fill: none;
      }

      .cls-2 {
        fill: #fff;
      }

      .cls-3 {
        fill: #f2b705;
      }

      .cls-4 {
        fill: #53cbc8;
      }
    </style>
  </defs>
  <rect class="cls-2" width="200" height="200"/>
  <g id="logo-symbol">
    <rect id="Rectangle_38" data-name="Rectangle 38" class="cls-1" x="8.28" y="8.28" width="183.43" height="183.43"/>
    <g id="symbol">
      <path id="Path_207" data-name="Path 207" class="cls-3" d="m98.35,11.95c-36.4,0-65.92,29.51-65.92,65.92h0c0,4.17.39,8.32,1.17,12.41l8.52-5.83c14.97-10.27,39.25-10.27,54.22,0l8.94,6.12,4.84,3.33c13.49,9.25,35.35,9.25,48.83,0l3.97-2.72c7.31-35.69-15.69-70.54-51.38-77.85-4.33-.89-8.75-1.34-13.17-1.34l-.02-.03Z"/>
      <path id="Path_208" data-name="Path 208" class="cls-4" d="m135.39,117.46c-9.93,0-19.43-2.69-26.58-7.6l-13.77-9.43c-6.59-4.53-15.44-7.03-24.9-7.03s-18.31,2.48-24.9,7.03l-8.9,6.09c-1.75,1.22-4.16.79-5.38-.97-1.22-1.75-.79-4.16.97-5.38.01-.01.03-.02.04-.03l8.9-6.09c7.87-5.4,18.26-8.37,29.27-8.37s21.4,2.97,29.27,8.37l13.77,9.43c13.63,8.34,30.78,8.34,44.41,0l5.23-3.58c1.74-1.23,4.16-.82,5.39.92,1.23,1.74.82,4.16-.92,5.39-.03.02-.06.04-.1.07l-5.23,3.58c-7.18,4.92-16.64,7.6-26.57,7.6Z"/>
      <path id="Path_209" data-name="Path 209" class="cls-4" d="m69.86,145.15v-37.24c-.03-.78,0-1.57.1-2.35.24-2.12,2.04-3.72,4.17-3.72,2.07.06,3.76,1.66,3.94,3.72.16,1.29.2,2.6.14,3.9v74.26c-.22,2.75-1.95,4.57-4.27,4.52s-4-1.94-4.01-4.73v-24.75l-.06-13.6Z"/>
      <path id="Path_210" data-name="Path 210" class="cls-4" d="m62.03,126.4v18.51c0,3.17-1.69,5.26-4.08,5.19s-4.21-2.21-4.22-5.23v-37c0-3.24,1.89-5.43,4.34-5.3s3.92,2.09,3.94,5.32c.03,6.17.02,12.34.02,18.51Z"/>
      <path id="Path_211" data-name="Path 211" class="cls-4" d="m86.08,126.38v-13.01c0-3.02,1.6-4.96,3.98-4.96s4.22,2.01,4.25,4.85c.09,8.86.09,17.71,0,26.55,0,3.02-1.78,4.83-4.22,4.8s-4.01-1.88-4.04-4.97v-13.28h.02Z"/>
      <path id="Path_212" data-name="Path 212" class="cls-4" d="m37.59,129.08v-13.01c0-3.01,1.6-4.96,3.98-4.96s4.22,2.01,4.25,4.85c.08,8.86.08,17.71,0,26.55,0,3.02-1.79,4.83-4.22,4.8s-4.01-1.88-4.04-4.97v-13.28h.02Z"/>
      <path id="Path_213" data-name="Path 213" class="cls-4" d="m106.28,118.01h.01c2.26,0,4.08,1.83,4.08,4.09v7.08c0,2.26-1.83,4.08-4.08,4.08h-.01c-2.26,0-4.08-1.83-4.09-4.08v-7.08c0-2.26,1.83-4.09,4.09-4.09Z"/>
      <path id="Path_214" data-name="Path 214" class="cls-4" d="m122.47,124.2h.01c2.26,0,4.08,1.83,4.08,4.09v39.68c0,2.26-1.83,4.08-4.08,4.08h-.01c-2.25,0-4.08-1.83-4.08-4.08h0v-39.69c0-2.26,1.83-4.09,4.08-4.09Z"/>
      <path id="Path_215" data-name="Path 215" class="cls-4" d="m138.55,125.74h.01c2.26,0,4.08,1.83,4.09,4.08v33.73c0,2.26-1.83,4.08-4.09,4.08h-.01c-2.25,0-4.08-1.83-4.08-4.08h0v-33.73c0-2.26,1.83-4.08,4.08-4.09h0Z"/>
      <path id="Path_216" data-name="Path 216" class="cls-4" d="m154.85,121.89h.01c2.26,0,4.08,1.83,4.08,4.08h0v14.55c0,2.26-1.83,4.08-4.08,4.08h-.01c-2.26,0-4.08-1.83-4.08-4.08h0v-14.55c0-2.26,1.83-4.08,4.08-4.09h0Z"/>
    </g>
  </g>
</svg>