<?xml version="1.0" encoding="UTF-8"?>
<svg id="Layer_1" data-name="Layer 1" xmlns="http://www.w3.org/2000/svg" viewBox="0 0 200 200">
  <defs>
    <style>
      .cls-1 {
        fill: none;
      }

      .cls-2 {
        fill: #fff;
      }

      .cls-3 {
        fill: #e1147b;
      }

      .cls-4 {
        fill: #53cbc8;
      }
    </style>
  </defs>
  <rect class="cls-2" width="200" height="200"/>
  <g id="logo-symbol">
    <rect id="Rectangle_37" data-name="Rectangle 37" class="cls-1" x="4.93" y="4.93" width="190.14" height="190.14"/>
    <g id="symbol">
      <path id="Path_185" data-name="Path 185" class="cls-4" d="m117.76,20.14c-32.18.01-58.26,26.11-58.26,58.29h0v.22c.09,1.52,1.35,2.71,2.87,2.7h110.77c1.52,0,2.78-1.18,2.87-2.7v-.1s0-.08,0-.12h0c0-32.18-26.08-58.28-58.26-58.29Z"/>
      <path id="Path_186" data-name="Path 186" class="cls-3" d="m20.94,143.51c0,1.96-1.59,3.54-3.55,3.54s-3.54-1.59-3.54-3.55c0-1.96,1.59-3.54,3.54-3.54,1.96,0,3.55,1.59,3.55,3.55h0Z"/>
      <path id="Path_187" data-name="Path 187" class="cls-3" d="m169.3,123.89H50.43c-1.93,0-3.49,1.57-3.49,3.5,0,.58.14,1.15.42,1.66.02.04.04.07.06.11.61,1.13,1.79,1.83,3.07,1.83h118.74c1.28,0,2.46-.7,3.07-1.83l.06-.11c.92-1.7.28-3.82-1.42-4.74-.51-.27-1.08-.42-1.66-.42Z"/>
      <path id="Path_188" data-name="Path 188" class="cls-3" d="m185.09,91.73H50.43c-1.93,0-3.5,1.58-3.49,3.51,0,.06,0,.12,0,.19,0,.04,0,.07,0,.11.1,1.85,1.64,3.29,3.49,3.29h134.65c1.85,0,3.38-1.44,3.49-3.29,0-.04,0-.07,0-.11.11-1.93-1.37-3.58-3.3-3.69-.06,0-.13,0-.19,0Z"/>
      <path id="Path_189" data-name="Path 189" class="cls-3" d="m134.39,172.12h-60.69c-1.93,0-3.49,1.57-3.49,3.5,0,1.32.75,2.53,1.94,3.13l.22.11c.48.24,1.02.36,1.56.36h60.24c.54,0,1.07-.12,1.56-.36l.22-.11c1.73-.86,2.43-2.96,1.57-4.69-.59-1.18-1.8-1.93-3.12-1.94Z"/>
      <path id="Path_190" data-name="Path 190" class="cls-3" d="m171.46,156.05h-60.68c-1.93,0-3.49,1.57-3.49,3.5,0,1.32.75,2.53,1.93,3.12l.22.11c.48.24,1.02.36,1.56.36h60.24c.54,0,1.07-.12,1.56-.36l.22-.11c1.73-.86,2.43-2.96,1.56-4.69-.59-1.18-1.8-1.93-3.12-1.93Z"/>
      <path id="Path_191" data-name="Path 191" class="cls-3" d="m88.72,145.94l-.1-.11c-1.31-1.41-1.23-3.62.18-4.94.65-.6,1.5-.93,2.38-.93h98.49c1.93,0,3.49,1.56,3.49,3.49,0,.88-.33,1.73-.93,2.38l-.1.11c-.66.71-1.59,1.11-2.56,1.12h-98.29c-.97,0-1.9-.41-2.56-1.12Z"/>
      <path id="Path_192" data-name="Path 192" class="cls-3" d="m30.05,139.97h47.03c1.93,0,3.49,1.57,3.49,3.5,0,1.32-.75,2.53-1.93,3.12l-.22.11c-.48.24-1.02.36-1.56.36H30.28c-.54,0-1.07-.12-1.56-.36l-.22-.11c-1.73-.86-2.43-2.96-1.56-4.69.59-1.18,1.79-1.93,3.11-1.93Z"/>
      <path id="Path_193" data-name="Path 193" class="cls-3" d="m41.31,95.28c0,1.96-1.59,3.54-3.55,3.54s-3.54-1.59-3.54-3.55c0-1.96,1.59-3.54,3.54-3.54,1.96,0,3.55,1.59,3.55,3.55h0Z"/>
      <path id="Path_194" data-name="Path 194" class="cls-3" d="m124.89,112.31s.02-.07.03-.11c.5-1.86-.61-3.78-2.47-4.28-.3-.08-.6-.12-.91-.12H23.04c-1.93,0-3.49,1.56-3.49,3.49,0,.31.04.61.12.91,0,.04.02.07.03.11.41,1.53,1.79,2.59,3.37,2.59h98.45c1.58,0,2.96-1.06,3.37-2.59"/>
      <path id="Path_195" data-name="Path 195" class="cls-3" d="m13.92,111.36c0,1.96-1.59,3.54-3.55,3.54s-3.54-1.59-3.54-3.55c0-1.96,1.59-3.54,3.55-3.54,1.96,0,3.55,1.59,3.55,3.55Z"/>
      <path id="Path_196" data-name="Path 196" class="cls-3" d="m41.31,127.43c0,1.96-1.59,3.54-3.55,3.54s-3.54-1.59-3.54-3.55c0-1.96,1.59-3.54,3.54-3.54,1.96,0,3.55,1.59,3.55,3.55Z"/>
      <path id="Path_197" data-name="Path 197" class="cls-3" d="m101.66,159.59c0,1.96-1.59,3.54-3.55,3.54s-3.54-1.59-3.54-3.55c0-1.96,1.59-3.54,3.54-3.54,1.96,0,3.55,1.59,3.55,3.55h0Z"/>
      <path id="Path_198" data-name="Path 198" class="cls-3" d="m64.58,175.67c0,1.96-1.59,3.54-3.55,3.54s-3.54-1.59-3.54-3.55c0-1.96,1.59-3.54,3.55-3.54,1.96,0,3.55,1.59,3.55,3.55h0Z"/>
    </g>
  </g>
</svg>