<?xml version="1.0" encoding="UTF-8"?>
<svg width="256px" height="256px" viewBox="0 0 256 256" version="1.1" xmlns="http://www.w3.org/2000/svg" xmlns:xlink="http://www.w3.org/1999/xlink">
    <title>RSK Logo</title>
    <g id="RSK-Logo" stroke="none" stroke-width="1" fill="none" fill-rule="evenodd">
        <g id="Group-6" fill="#00B43C">
            <path d="M128,0 C198.645,0 256,57.3055 256,127.8895 C256,198.4735 198.645,255.7785 128,255.7785 C57.355,255.7785 0,198.4735 0,127.8895 C0,57.3055 57.355,0 128,0 Z" id="Fill-1"></path>
        </g>
        <g id="rsk_logo_reverse" transform="translate(77.000000, 28.000000)" fill="#FFFFFF" fill-rule="nonzero">
            <path d="M135.048433,86.8175084 C134.528015,86.5575758 121.387464,79.5393939 110.198481,86.0377104 C101.221273,91.2363636 99.5299145,101.503704 99.1396011,105.792593 L95.1063628,108.131987 C93.0246914,106.052525 90.2924976,104.882828 87.1699905,104.882828 C84.0474834,104.882828 81.3152896,106.052525 79.2336182,108.131987 L60.368471,97.2148148 C60.62868,96.3050505 60.7587844,95.3952862 60.7587844,94.4855219 C60.7587844,89.2868687 57.2459639,84.8680135 52.5622032,83.5683502 L52.5622032,76.810101 C58.0265907,73.3010101 75.4605888,60.4343434 75.4605888,40.0296296 C75.4605888,16.3757576 52.0417854,1.68956229 51.0009497,1.03973064 L49.3095916,0 L47.6182336,1.03973064 C46.5773979,1.68956229 23.1585945,16.3757576 23.1585945,40.0296296 C23.1585945,60.4343434 40.5925926,73.3010101 46.0569801,76.810101 L46.0569801,83.5683502 C41.2431149,84.8680135 37.8603989,89.2868687 37.8603989,94.4855219 C37.8603989,95.3952862 37.9905033,96.3050505 38.2507123,97.2148148 L19.3855651,108.131987 C17.3038936,106.182492 14.5716999,104.882828 11.4491928,104.882828 C5.20417854,104.882828 9.24447814e-15,109.951515 9.24447814e-15,116.319865 C9.24447814e-15,121.518519 3.51282051,125.937374 8.1965812,127.237037 L8.1965812,149.851178 C3.64292498,151.150842 0.130104463,155.569697 0.130104463,160.76835 C0.130104463,167.006734 5.20417854,172.205387 11.5792972,172.205387 C14.9620133,172.205387 17.954416,170.775758 20.0360874,168.436364 L38.3808167,178.963636 C38.1206078,179.873401 37.9905033,180.783165 37.9905033,181.692929 C37.9905033,187.931313 43.0645774,193 49.4396961,193 C55.6847104,193 60.8888889,187.931313 60.8888889,181.692929 C60.8888889,180.783165 60.7587844,179.873401 60.4985755,178.963636 L78.8433048,168.436364 C80.9249763,170.775758 83.9173789,172.205387 87.300095,172.205387 C93.5451092,172.205387 98.7492877,167.1367 98.7492877,160.76835 C98.7492877,155.569697 95.2364672,151.150842 90.5527066,149.851178 L90.5527066,127.237037 C95.2364672,125.807407 98.7492877,121.518519 98.7492877,116.319865 C98.7492877,115.410101 98.6191833,114.500337 98.4890788,113.720539 L102.652422,111.381145 C105.124406,112.550842 109.808167,114.37037 115.14245,114.37037 C118.395062,114.37037 121.907882,113.720539 125.290598,111.771044 C136.349478,105.402694 137,90.4565657 137,89.9367003 L137,87.9872054 L135.048433,86.8175084 Z M90.2924976,120.218855 C89.3817664,120.868687 88.3409307,121.258586 87.1699905,121.258586 C86.5194682,121.258586 85.9990503,121.12862 85.348528,120.868687 C84.8281102,120.738721 84.4377968,120.478788 84.0474834,120.088889 C83.0066477,119.309091 82.3561254,118.139394 82.0959164,116.839731 C82.0959164,116.579798 82.0959164,116.319865 82.0959164,116.059933 C82.0959164,115.8 82.0959164,115.670034 82.0959164,115.410101 C82.3561254,113.590572 83.5270655,112.030976 85.2184236,111.381145 C85.7388414,111.121212 86.3893637,110.991246 87.039886,110.991246 C87.6904084,110.991246 88.4710351,111.121212 88.991453,111.381145 C90.8129155,112.160943 92.1139601,113.980471 92.1139601,116.059933 C92.1139601,116.319865 92.1139601,116.579798 91.9838557,116.839731 C91.9838557,118.399327 91.2032289,119.439057 90.2924976,120.218855 M92.2440646,160.76835 C92.2440646,163.627609 89.9021842,165.837037 87.1699905,165.837037 C86.2592593,165.837037 85.2184236,165.577104 84.5679012,165.057239 C83.1367521,164.147475 82.0959164,162.587879 82.0959164,160.76835 C82.0959164,160.76835 82.0959164,160.638384 82.0959164,160.638384 L82.0959164,160.638384 C82.0959164,160.118519 82.2260209,159.598653 82.3561254,159.078788 C82.6163343,158.169024 83.2668566,157.389226 84.0474834,156.739394 C84.6980057,156.219529 85.4786325,155.82963 86.2592593,155.699663 C86.5194682,155.699663 86.7796771,155.569697 87.1699905,155.569697 C88.3409307,155.569697 89.5118708,155.959596 90.2924976,156.609428 C91.4634378,157.649158 92.2440646,159.078788 92.2440646,160.76835 M84.0474834,149.851178 C82.4862298,150.241077 81.0550807,151.020875 79.8841406,152.060606 L60.4985755,140.883502 L60.4985755,140.883502 C60.62868,140.103704 60.7587844,139.453872 60.7587844,138.674074 C60.7587844,137.634343 60.62868,136.464646 60.2383666,135.554882 L79.2336182,124.63771 C80.5346629,125.937374 82.0959164,126.847138 83.9173789,127.367003 L83.9173789,149.851178 L84.0474834,149.851178 Z M49.3095916,186.761616 C46.7075024,186.761616 44.625831,184.942088 44.2355176,182.472727 C44.2355176,182.212795 44.2355176,181.952862 44.2355176,181.692929 C44.2355176,179.613468 45.5365622,177.793939 47.3580247,177.014141 C48.008547,176.754209 48.6590693,176.624242 49.3095916,176.624242 C49.960114,176.624242 50.6106363,176.754209 51.2611586,177.014141 C53.0826211,177.793939 54.3836657,179.613468 54.3836657,181.692929 C54.3836657,181.952862 54.3836657,182.212795 54.3836657,182.472727 C53.9933523,184.942088 51.9116809,186.761616 49.3095916,186.761616 M38.1206078,140.883502 L18.7350427,152.060606 C17.5641026,151.020875 16.1329535,150.241077 14.5716999,149.851178 L14.5716999,127.237037 C16.3931624,126.717172 17.954416,125.807407 19.2554606,124.507744 L38.2507123,135.424916 C37.9905033,136.464646 37.7302944,137.504377 37.7302944,138.674074 C37.9905033,139.453872 37.9905033,140.23367 38.1206078,140.883502 L38.1206078,140.883502 Z M16.6533713,160.76835 C16.6533713,162.587879 15.7426401,164.147475 14.1813865,165.057239 C13.4007597,165.577104 12.4900285,165.837037 11.5792972,165.837037 C8.71699905,165.837037 6.50522317,163.497643 6.50522317,160.76835 C6.50522317,159.208754 7.28584995,157.649158 8.45679012,156.739394 C9.36752137,156.089562 10.4083571,155.699663 11.5792972,155.699663 C11.8395062,155.699663 12.2298196,155.699663 12.4900285,155.82963 C13.4007597,155.959596 14.0512821,156.349495 14.7018044,156.86936 C15.4824311,157.389226 16.002849,158.29899 16.3931624,159.208754 C16.5232669,159.72862 16.6533713,160.248485 16.6533713,160.76835 C16.6533713,160.638384 16.6533713,160.638384 16.6533713,160.76835 M6.37511871,116.319865 C6.37511871,113.460606 8.71699905,111.251178 11.4491928,111.251178 C12.0997151,111.251178 12.7502374,111.381145 13.2706553,111.641077 C14.9620133,112.290909 16.1329535,113.850505 16.3931624,115.670034 C16.3931624,115.929966 16.3931624,116.189899 16.3931624,116.449832 C16.3931624,116.709764 16.3931624,116.969697 16.3931624,117.22963 C16.2630579,118.529293 15.4824311,119.69899 14.4415954,120.478788 C14.0512821,120.738721 13.6609687,120.998653 13.1405508,121.258586 C12.620133,121.518519 11.9696106,121.648485 11.3190883,121.648485 C10.1481481,121.648485 8.97720798,121.258586 8.1965812,120.608754 C7.15574549,119.309091 6.37511871,117.879461 6.37511871,116.319865 M46.1870845,90.4565657 C47.0978158,89.806734 48.1386515,89.416835 49.3095916,89.416835 C50.4805318,89.416835 51.651472,89.806734 52.4320988,90.4565657 C53.4729345,91.2363636 54.1234568,92.4060606 54.2535613,93.7057239 C54.2535613,93.9656566 54.2535613,94.2255892 54.2535613,94.4855219 C54.2535613,96.0451178 53.4729345,97.6047138 52.3019943,98.5144781 C51.9116809,98.7744108 51.5213675,99.0343434 51.0009497,99.2942761 C50.4805318,99.5542088 49.8300095,99.6841751 49.1794872,99.6841751 C48.5289649,99.6841751 47.8784425,99.5542088 47.3580247,99.2942761 C46.8376068,99.1643098 46.4472934,98.9043771 46.0569801,98.5144781 C44.8860399,97.6047138 44.1054131,96.1750842 44.1054131,94.4855219 C44.1054131,94.2255892 44.1054131,93.9656566 44.1054131,93.7057239 C44.4957265,92.4060606 45.1462488,91.2363636 46.1870845,90.4565657 M54.3836657,138.80404 C54.3836657,140.363636 53.6030389,141.6633 52.4320988,142.573064 C52.1718898,142.70303 51.9116809,142.962963 51.651472,143.092929 C50.8708452,143.482828 50.0902184,143.742761 49.1794872,143.742761 C48.2687559,143.742761 47.4881292,143.482828 46.8376068,143.092929 C46.5773979,142.962963 46.317189,142.832997 46.0569801,142.573064 C44.8860399,141.6633 44.1054131,140.23367 44.1054131,138.674074 C44.1054131,138.674074 44.1054131,138.544108 44.1054131,138.544108 C44.1054131,138.024242 44.1054131,137.634343 44.2355176,137.244444 C44.4957265,136.204714 45.1462488,135.294949 45.9268756,134.515152 C46.4472934,134.125253 47.0978158,133.735354 47.8784425,133.605387 C48.2687559,133.475421 48.6590693,133.475421 49.1794872,133.475421 C49.699905,133.475421 50.0902184,133.475421 50.4805318,133.605387 C51.1310541,133.735354 51.7815764,134.125253 52.3019943,134.515152 C53.0826211,135.164983 53.7331434,136.074747 53.9933523,137.114478 C54.1234568,137.504377 54.1234568,138.024242 54.1234568,138.544108 C54.3836657,138.674074 54.3836657,138.80404 54.3836657,138.80404 L54.3836657,138.80404 Z M76.1111111,113.460606 C75.8509022,114.37037 75.7207977,115.280135 75.7207977,116.189899 C75.7207977,117.099663 75.8509022,118.139394 76.1111111,119.049158 L56.8556505,130.096296 C55.5546059,128.926599 54.1234568,128.146801 52.4320988,127.626936 L52.4320988,105.402694 C54.2535613,104.882828 55.8148148,103.973064 57.1158594,102.673401 L76.1111111,113.460606 Z M29.5337132,40.0296296 C29.5337132,23.2639731 44.2355176,11.1771044 49.3095916,7.53804714 C54.3836657,11.1771044 69.0854701,23.2639731 69.0854701,40.0296296 C69.0854701,54.0659933 58.677113,64.203367 52.4320988,69.0121212 L52.4320988,42.6289562 C52.4320988,40.9393939 51.0009497,39.5097643 49.3095916,39.5097643 C47.6182336,39.5097643 46.1870845,40.9393939 46.1870845,42.6289562 L46.1870845,69.1420875 C39.9420703,64.203367 29.5337132,54.1959596 29.5337132,40.0296296 M41.3732194,102.673401 C42.674264,103.973064 44.365622,104.882828 46.0569801,105.402694 L46.0569801,127.756902 C44.365622,128.276768 42.9344729,129.056566 41.6334283,130.226263 L22.3779677,119.179125 C22.6381766,118.26936 22.7682811,117.359596 22.7682811,116.449832 C22.7682811,115.540067 22.6381766,114.630303 22.3779677,113.720539 L41.3732194,102.673401 Z M22.7682811,162.717845 C22.8983856,162.068013 22.8983856,161.418182 22.8983856,160.76835 C22.8983856,159.598653 22.7682811,158.428956 22.3779677,157.259259 L41.1130104,146.472054 C42.4140551,147.901684 44.2355176,148.941414 46.1870845,149.591246 L46.1870845,170.775758 C44.365622,171.295623 42.8043685,172.205387 41.3732194,173.505051 L22.7682811,162.717845 Z M57.2459639,173.505051 C55.9449193,172.205387 54.2535613,171.295623 52.4320988,170.775758 L52.4320988,149.591246 C54.3836657,149.07138 56.2051282,147.901684 57.5061728,146.472054 L76.2412156,157.259259 C75.8509022,158.29899 75.7207977,159.468687 75.7207977,160.76835 C75.7207977,161.418182 75.7207977,162.068013 75.8509022,162.717845 L57.2459639,173.505051 Z M121.907882,106.182492 C117.744539,108.651852 113.060779,108.131987 109.417854,107.222222 L115.662868,103.583165 C117.224122,102.673401 117.744539,100.853872 116.833808,99.2942761 C115.923077,97.7346801 114.101614,97.2148148 112.540361,98.1245791 L106.295347,101.763636 C107.206078,98.2545455 109.287749,93.9656566 113.451092,91.4962963 C119.435897,87.9872054 126.851852,90.196633 130.234568,91.6262626 C129.71415,95.1353535 127.892688,102.673401 121.907882,106.182492" id="Shape"></path>
        </g>
    </g>
</svg>