<?xml version="1.0" encoding="UTF-8"?>
<svg width="256px" height="256px" viewBox="0 0 256 256" version="1.1" xmlns="http://www.w3.org/2000/svg" xmlns:xlink="http://www.w3.org/1999/xlink">
    <title>Polygon</title>
    <g id="Polygon" stroke="none" stroke-width="1" fill="none" fill-rule="evenodd">
        <g id="Group-6">
            <path d="M128,0 C198.645,0 256,57.3055 256,127.8895 C256,198.4735 198.645,255.7785 128,255.7785 C57.355,255.7785 0,198.4735 0,127.8895 C0,57.3055 57.355,0 128,0 Z" id="Fill-1" fill="#F7F7F7"></path>
            <g id="polygon-matic-logo" transform="translate(54.000000, 63.000000)" fill="#8247E5" fill-rule="nonzero">
                <path d="M111.305483,39.7329377 C108.618799,38.189911 105.164491,38.189911 102.093995,39.7329377 L80.6005222,52.462908 L66.0156658,60.5637982 L44.9060052,73.2937685 C42.2193211,74.8367953 38.7650131,74.8367953 35.694517,73.2937685 L19.1906005,63.264095 C16.5039164,61.7210682 14.5848564,58.6350148 14.5848564,55.1632047 L14.5848564,35.8753709 C14.5848564,32.7893175 16.1201044,29.7032641 19.1906005,27.7744807 L35.694517,18.1305638 C38.381201,16.5875371 41.8355091,16.5875371 44.9060052,18.1305638 L61.4099217,28.1602374 C64.0966057,29.7032641 66.0156658,32.7893175 66.0156658,36.2611276 L66.0156658,48.9910979 L80.6005222,40.504451 L80.6005222,27.388724 C80.6005222,24.3026706 79.0652742,21.2166172 75.9947781,19.2878338 L45.2898172,1.15727003 C42.6031332,-0.385756677 39.1488251,-0.385756677 36.078329,1.15727003 L4.60574413,19.6735905 C1.53524804,21.2166172 0,24.3026706 0,27.388724 L0,63.6498516 C0,66.735905 1.53524804,69.8219585 4.60574413,71.7507418 L35.694517,89.8813056 C38.381201,91.4243323 41.8355091,91.4243323 44.9060052,89.8813056 L66.0156658,77.537092 L80.6005222,69.0504451 L101.710183,56.7062315 C104.396867,55.1632047 107.851175,55.1632047 110.921671,56.7062315 L127.425587,66.3501484 C130.112272,67.8931751 132.031332,70.9792285 132.031332,74.4510386 L132.031332,93.7388724 C132.031332,96.8249258 130.496084,99.9109792 127.425587,101.839763 L111.305483,111.48368 C108.618799,113.026706 105.164491,113.026706 102.093995,111.48368 L85.5900783,101.839763 C82.9033943,100.296736 80.9843342,97.2106825 80.9843342,93.7388724 L80.9843342,81.3946588 L66.3994778,89.8813056 L66.3994778,102.611276 C66.3994778,105.697329 67.9347258,108.783383 71.0052219,110.712166 L102.093995,128.84273 C104.780679,130.385757 108.234987,130.385757 111.305483,128.84273 L142.394256,110.712166 C145.08094,109.169139 147,106.083086 147,102.611276 L147,65.9643917 C147,62.8783383 145.464752,59.7922849 142.394256,57.8635015 L111.305483,39.7329377 Z" id="Path"></path>
            </g>
        </g>
    </g>
</svg>