<?xml version="1.0" encoding="UTF-8"?>
<svg width="64px" height="64px" viewBox="0 0 64 64" version="1.1" xmlns="http://www.w3.org/2000/svg" xmlns:xlink="http://www.w3.org/1999/xlink">
    <title>c-chain-circle copy</title>
    <g id="c-chain-circle-copy" stroke="none" stroke-width="1" fill="none" fill-rule="evenodd">
        <g id="Group" fill-rule="nonzero">
            <g id="Profile-Logo">
                <circle id="Oval" fill="#FF0420" cx="32" cy="32" r="32"></circle>
                <path d="M22.673024,40.505088 C20.767616,40.505088 19.206528,40.056704 17.989632,39.160064 C16.788736,38.247424 16.188288,36.950528 16.188288,35.269248 C16.188288,34.916992 16.228352,34.484608 16.308352,33.972224 C16.516608,32.819456 16.8128,31.434368 17.197056,29.817216 C18.285824,25.414016 21.095936,23.212416 25.627264,23.212416 C26.86016,23.212416 27.964928,23.420544 28.941696,23.8368 C29.918464,24.237056 30.686976,24.845568 31.24736,25.662208 C31.807744,26.46272 32.088064,27.423488 32.088064,28.544256 C32.088064,28.880512 32.048,29.304832 31.967872,29.817216 C31.727744,31.24224 31.439488,32.627328 31.103232,33.972224 C30.542848,36.165888 29.574144,37.807104 28.19712,38.895872 C26.820096,39.96864 24.978816,40.505088 22.673024,40.505088 Z M23.00928,37.046528 C23.906048,37.046528 24.666496,36.782336 25.291008,36.253952 C25.93152,35.725568 26.38784,34.916992 26.659968,33.828224 C27.028224,32.323072 27.308544,31.010048 27.500672,29.88928 C27.564672,29.553024 27.596672,29.208832 27.596672,28.856448 C27.596672,27.399424 26.836096,26.670848 25.315072,26.670848 C24.418304,26.670848 23.649792,26.93504 23.00928,27.463424 C22.384896,27.991936 21.936512,28.800512 21.664384,29.88928 C21.376128,30.962048 21.087872,32.275072 20.799744,33.828224 C20.735616,34.148352 20.703616,34.484608 20.703616,34.836864 C20.703616,36.310016 21.472256,37.046528 23.00928,37.046528 Z" id="Shape" fill="#FFFFFF"></path>
                <path d="M33.190784,40.26496 C33.014656,40.26496 32.878464,40.208896 32.782464,40.096768 C32.702336,39.96864 32.6784,39.82464 32.7104,39.664512 L36.024832,24.052992 C36.056832,23.876864 36.144896,23.732736 36.289024,23.620608 C36.433152,23.508608 36.585216,23.452544 36.745344,23.452544 L43.13408,23.452544 C44.91136,23.452544 46.336384,23.8208 47.409152,24.557312 C48.498048,25.293952 49.042432,26.358656 49.042432,27.75168 C49.042432,28.151936 48.994432,28.56832 48.898304,29.000576 C48.498048,30.841984 47.689472,32.203008 46.472576,33.083648 C45.27168,33.964288 43.6224,34.404608 41.524864,34.404608 L38.282496,34.404608 L37.177728,39.664512 C37.1456,39.84064 37.057536,39.98464 36.913536,40.096768 C36.769408,40.208896 36.617216,40.26496 36.457216,40.26496 L33.190784,40.26496 Z M41.693056,31.090176 C42.36544,31.090176 42.949888,30.905984 43.446272,30.537728 C43.958656,30.169472 44.294912,29.641088 44.45504,28.952576 C44.50304,28.68032 44.527104,28.440192 44.527104,28.232064 C44.527104,27.76768 44.39104,27.415424 44.118784,27.175296 C43.846528,26.91904 43.382272,26.79104 42.72576,26.79104 L39.843584,26.79104 L38.930944,31.090176 L41.693056,31.090176 Z" id="Shape" fill="#FFFFFF"></path>
            </g>
        </g>
    </g>
</svg>