<?xml version="1.0" encoding="UTF-8"?>
<svg width="48px" height="48px" viewBox="0 0 48 48" version="1.1" xmlns="http://www.w3.org/2000/svg" xmlns:xlink="http://www.w3.org/1999/xlink">
    <!-- Generator: Sketch 56.3 (81716) - https://sketch.com -->
    <title>rinkeby-icon</title>
    <desc>Created with Sketch.</desc>
    <g id="Finals" stroke="none" stroke-width="1" fill="none" fill-rule="evenodd">
        <g id="Artboard-Copy-3" fill="#FFC32D">
            <path d="M43.413,38.11 C46.2996667,34.15 48,29.2733333 48,24 C48,10.7466667 37.2533333,0 24,0 C10.743,0 0,10.7466667 0,24 C0,37.2533333 10.743,48 24,48 C31.0133333,48 37.3263333,44.99 41.7163333,40.19 L38.7766667,37.1866667 L26.6266667,37.1866667 L10.423,20.4633333 L9.323,21.5633333 L7.43633333,19.6766667 L8.56666667,18.5466667 L3.48333333,13.3033333 L5.39666667,11.4466667 L10.4496667,16.6633333 L11.39,15.7233333 L13.2766667,17.61 L12.3066667,18.58 L27.7563333,34.52 L36.1666667,34.52 L12.573,10.4133333 L14.4763333,8.54666667 L43.413,38.11 Z" id="rinkeby-icon"></path>
        </g>
    </g>
</svg>