<?xml version="1.0" encoding="UTF-8"?>
<svg width="48px" height="48px" viewBox="0 0 48 48" version="1.1" xmlns="http://www.w3.org/2000/svg" xmlns:xlink="http://www.w3.org/1999/xlink">
    <!-- Generator: Sketch 56.3 (81716) - https://sketch.com -->
    <title>ropsten-icon</title>
    <desc>Created with Sketch.</desc>
    <g id="Finals" stroke="none" stroke-width="1" fill="none" fill-rule="evenodd">
        <g id="Artboard-Copy-2" fill="#FB407F">
            <path d="M25.4369117,0.0433331829 L25.4369117,26.9899063 L23.2799192,28.2232353 L23.2799192,23.5632515 L18.7436016,18.7599349 L8.05997201,18.7599349 L8.05997201,21.4265923 L17.5966056,21.4265923 L20.6132618,24.6232478 L20.6132618,29.7465634 L15.733612,32.539887 L15.733612,46.5365051 C6.55031059,43.1698501 7.531753e-13,34.3532141 7.531753e-13,23.9999167 C7.531753e-13,10.7466294 10.7436294,-2.52242671e-13 23.9999167,-2.52242671e-13 C24.4835817,-2.52242671e-13 24.96358,0.013333287 25.4369117,0.0433331829 Z M18.4001694,34.086515 L20.6134951,32.8198527 L20.6134951,47.7598008 C19.8634977,47.6564679 19.1235003,47.5164683 18.4001694,47.3431356 L18.4001694,34.086515 Z M48,23.99995 C48,37.2565706 37.2533706,47.9998667 24.0000833,47.9998667 C23.7600842,47.9998667 23.5204183,47.9965333 23.2800858,47.9898667 L23.2800858,31.2965913 L39.5866959,21.9666237 L40.5400259,23.6332846 L42.8566845,22.3132892 L39.5233628,16.4799761 L37.2067041,17.7999715 L38.2633671,19.6499651 L28.1037358,25.4632783 L28.1037358,0.350032118 C39.4033632,2.29669203 48,12.1466578 48,23.99995 Z" id="ropsten-icon"></path>
        </g>
    </g>
</svg>