<?xml version="1.0" encoding="UTF-8"?>
<svg width="48px" height="48px" viewBox="0 0 48 48" version="1.1" xmlns="http://www.w3.org/2000/svg" xmlns:xlink="http://www.w3.org/1999/xlink">
    <!-- Generator: Sketch 56.3 (81716) - https://sketch.com -->
    <title>kovan-icon</title>
    <desc>Created with Sketch.</desc>
    <g id="Finals" stroke="none" stroke-width="1" fill="none" fill-rule="evenodd">
        <g id="Artboard-Copy" fill="#7057FF">
            <path d="M1.15662651,30.6506024 L20.2409639,30.6506024 L20.2409639,34.0171745 L10.1974524,43.373494 C5.87357915,40.2951109 2.63900216,35.8347304 1.15662651,30.6506024 Z M22.4668084,34.978718 L22.4668084,30.6506024 L36.4337349,44.3232842 C32.7725018,46.6535498 28.4431845,48 23.8029766,48 C19.5662651,48 15.5908339,46.8785177 12.1445783,44.9075295 L22.4668084,34.978718 Z M35.2771084,2.93547652 L19.8483182,18.5669721 L19.8483182,20.398736 L17.6764567,20.398736 L17.6764567,23.0582844 L19.8483182,23.0582844 L19.8483182,27.7590361 L0.304543908,27.7590361 C0.10228703,26.5156973 0,25.2357896 0,23.9359354 C0,10.7146555 10.6722778,0 23.8338711,0 C27.9816267,0 31.8807818,1.06381935 35.2771084,2.93547652 Z M48,24.1235225 C48,31.6843342 44.4495034,38.4264171 38.9079178,42.7951807 L23.3436251,27.9354179 L22.5542169,27.9354179 L22.5542169,23.2484439 L24.9030326,23.2484439 L24.9030326,20.5966905 L22.5542169,20.5966905 L22.5542169,19.8641437 L37.8036164,4.62650602 C43.9743192,8.94554928 48,16.0688217 48,24.1235225 Z" id="kovan-icon"></path>
        </g>
    </g>
</svg>