<?xml version="1.0" encoding="UTF-8"?>
<svg width="48px" height="48px" viewBox="0 0 48 48" version="1.1" xmlns="http://www.w3.org/2000/svg" xmlns:xlink="http://www.w3.org/1999/xlink">
    <!-- Generator: Sketch 56.3 (81716) - https://sketch.com -->
    <title>mainnet-icon</title>
    <desc>Created with Sketch.</desc>
    <g id="Finals" stroke="none" stroke-width="1" fill="none" fill-rule="evenodd">
        <g id="Artboard" fill="#26D9D0">
            <path d="M13.7601713,27.8034087 L14.39017,28.4467407 L4.65652363,38.2067204 C2.44019492,35.1967267 0.91353143,31.6534007 0.299866042,27.8034087 L13.7601713,27.8034087 Z M22.7233527,36.966623 L44.2003079,36.966623 C39.9299835,43.6032758 32.4803323,47.9999333 24.0000167,47.9999333 C17.0233645,47.9999333 10.7433776,45.0232729 6.36005342,40.2699494 L16.2533661,30.3533034 L22.7233527,36.966623 Z M8.81031498,18.5633613 L24.2469495,18.5633613 L16.2736328,26.556678 L14.8833023,25.136681 L0.0266666111,25.136681 C0.0103333118,24.7600151 -7.10542736e-15,24.3800159 -7.10542736e-15,24.0000167 C-7.10542736e-15,19.8833586 1.03699784,16.0067 2.86332737,12.6200404 L8.81031498,18.5633613 Z M18.1367955,28.4632407 L27.4801094,19.0999269 L36.5067573,27.8035754 L47.7000673,27.8035754 C47.3367347,30.0932373 46.6467362,32.2765661 45.6834048,34.2998952 L23.8434503,34.2998952 L18.1367955,28.4632407 Z M33.1298976,9.65664655 L26.9065773,15.8966335 L9.91361268,15.8966335 L4.30362437,10.2866452 C8.63994867,4.06665819 15.8466003,-2.45137244e-13 23.9999167,-2.45137244e-13 C31.8799003,-2.45137244e-13 38.870219,3.79665876 43.2432099,9.65664655 L33.1298976,9.65664655 Z M48,24.0000167 C48,24.3800159 47.99,24.7600151 47.9733334,25.136681 L37.583355,25.136681 L29.3600388,17.2100308 L34.2366953,12.3233743 L44.9700063,12.3233743 C46.9000023,15.7800338 48,19.7600255 48,24.0000167 Z" id="mainnet-icon"></path>
        </g>
    </g>
</svg>