<?xml version="1.0" encoding="UTF-8"?>
<svg width="64px" height="64px" viewBox="0 0 64 64" version="1.1" xmlns="http://www.w3.org/2000/svg" xmlns:xlink="http://www.w3.org/1999/xlink">
    <title>c-chain-circle</title>
    <g id="c-chain-circle" stroke="none" stroke-width="1" fill="none" fill-rule="evenodd">
        <circle id="Oval" fill="#E84142" cx="32" cy="32" r="32"></circle>
        <g id="avalanche-avax-logo" transform="translate(14.000000, 13.000000)" fill="#FFFFFF" fill-rule="nonzero">
            <path d="M26.9622016,19.6354557 C27.8424178,18.1173533 29.2627667,18.1173533 30.1429829,19.6354557 L35.6243294,29.2434457 C36.5045457,30.7615481 35.7843688,32 34.0239363,32 L22.9812236,32 C21.2407961,32 20.5206192,30.7615481 21.3808305,29.2434457 L26.9622016,19.6354557 Z M16.359597,1.13857678 C17.2398133,-0.379525593 18.6401573,-0.379525593 19.5203735,1.13857678 L20.7406733,3.33583021 L23.6213809,8.38951311 C24.3215529,9.82771536 24.3215529,11.525593 23.6213809,12.9637953 L13.9590073,29.6828964 C13.0787911,31.0411985 11.6184324,31.9001248 9.9980343,32 L1.97606369,32 C0.215631237,32 -0.504545676,30.7815231 0.375670551,29.2434457 L16.359597,1.13857678 Z" id="Shape"></path>
        </g>
    </g>
</svg>